<svg viewBox="0 0 512 422" xmlns="http://www.w3.org/2000/svg" fill-rule="evenodd" clip-rule="evenodd" stroke-linecap="round" stroke-linejoin="round" stroke-miterlimit="1.5">
    <path d="M511 6.436a5.44 5.44 0 0 0-5.437-5.437H6.437A5.44 5.44 0 0 0 1 6.436v409.126a5.44 5.44 0 0 0 5.437 5.437h499.126a5.44 5.44 0 0 0 5.437-5.437V6.436z" fill="#2b2552" stroke="#b671e7" stroke-width="2"/>
    <circle cx="21.908" cy="18.459" r="5.724" fill="#fe5e56"/>
    <circle cx="41" cy="18.459" r="5.724" fill="#febc2e"/>
    <circle cx="60.093" cy="18.459" r="5.724" fill="#27c93f"/>
    <g fill="#fff" fill-rule="nonzero">
        <path d="M243.96 24.607c2.048 0 3.28-1.52 3.28-4.288 0-2.688-1.328-4.272-3.376-4.272-.8 0-1.648.416-2.176.992v-4.176l-1.12.56v10.992h1.12v-.736c.528.448 1.12.928 2.272.928zm-.176-1.008c-.816 0-1.648-.512-2.096-1.28v-4.016c.304-.528 1.088-1.248 2.096-1.248 1.52 0 2.288 1.168 2.288 3.264 0 2.016-.752 3.28-2.288 3.28zM254.264 24.415h1.04v-5.536c0-2.32-1.552-2.832-2.72-2.832-1.12 0-2.208.48-2.864.896l.32.96c.608-.416 1.616-.88 2.432-.88.912 0 1.792.352 1.792 2v.688c-.8-.432-1.52-.576-2.208-.576-1.552 0-2.976.816-2.976 2.704 0 1.84 1.136 2.768 2.784 2.768.88 0 1.744-.4 2.4-.992v.8zm-2.288-.784c-1.184 0-1.856-.72-1.856-1.792 0-1.184.944-1.728 2.048-1.728.704 0 1.568.32 2.096.672v1.584c-.496.608-1.296 1.264-2.288 1.264zM260.168 24.607c1.696 0 2.752-.88 2.752-2.24 0-1.648-1.392-2.208-2.608-2.688-.96-.384-1.872-.736-1.872-1.568 0-.656.608-1.072 1.552-1.072.896 0 1.536.464 1.952.88l.736-.624c-.656-.784-1.552-1.248-2.656-1.248-1.536 0-2.64.832-2.64 2.08 0 1.376 1.152 1.952 2.448 2.48.992.4 2.032.832 2.032 1.824 0 .768-.704 1.184-1.6 1.184-.848 0-1.632-.528-2.128-1.12l-.784.688c.688.816 1.712 1.424 2.816 1.424zM265.272 24.415h1.12v-5.024c0-1.776.864-2.336 2.016-2.336 1.088 0 1.904.64 1.904 2.368v4.992h1.12v-4.528c0-2.704-.928-3.84-2.928-3.84-.864 0-1.616.368-2.112 1.104v-4.288l-1.12.528v11.024z"/>
    </g>
    <g font-size="16" font-family="'Overpass Mono'">
        <text x="219.439" y="480.516"  fill="#b671e7" transform="translate(-198.859 -421.854)">
            ~/myProject
        </text>
        <text x="337.711" y="480.516" fill="#fff" transform="translate(-198.859 -421.854)">
            $ specron test
        </text>
        <text x="239.151" y="528.516" fill="#fff" transform="translate(-198.859 -421.854)">
            Sources
        </text>
        <text x="268.719" y="552.516" fill="#ffe566" transform="translate(-198.859 -421.854)">
            ./src/contracts/main.sol
        </text>
        <text x="239.151" y="576.516" fill="#fff" transform="translate(-198.859 -421.854)">
            Contracts
        </text>
        <text x="268.719" y="600.516" fill="#ffe566" transform="translate(-198.859 -421.854)">
            ./src/contracts/main.sol: Main
        </text>
        <text x="239.151" y="648.516" fill="#3bd4b5" transform="translate(-198.859 -421.854)">
            1
        </text>
        <text x="258.863" y="648.516" fill="#fff" transform="translate(-198.859 -421.854)">
            contracts 1 sources
        </text>
        <text x="239.151" y="696.516" fill="#fff" transform="translate(-198.859 -421.854)">
            src/tests/main.test.ts
        </text>
        <text x="268.719" y="720.516" fill="#ffe566" transform="translate(-198.859 -421.854)">
            returns boolean
        </text>
        <text x="426.415" y="720.516" font-family="'AppleSymbols','Apple Symbols'" fill="#3bd4b5" transform="translate(-198.859 -421.854)">
            ⚑
        </text>
        <text x="239.151" y="768.516" fill="#3bd4b5" transform="translate(-198.859 -421.854)">
            1
        </text>
        <text x="258.863" y="768.516" fill="#fff" transform="translate(-198.859 -421.854)">
            passing
        </text>
        <text x="219.439" y="816.516" fill="#b671e7" transform="translate(-198.859 -421.854)">
            ~/myProject
        </text>
        <text x="337.711" y="816.516" fill="#fff" transform="translate(-198.859 -421.854)">
            $
        </text>
    </g>
    <path fill="#aa71e7" d="M159.397 380.668h9.77v18.402h-9.77z"/>
</svg>
