<svg viewBox="0 0 502 517" xmlns="http://www.w3.org/2000/svg" fill-rule="evenodd" clip-rule="evenodd" stroke-linecap="round" stroke-linejoin="round" stroke-miterlimit="1.5">
    <path d="M500.993 7.473c0-3.572-2.9-6.473-6.473-6.473H7.466A6.477 6.477 0 0 0 .993 7.473v502.054A6.477 6.477 0 0 0 7.466 516H494.52a6.476 6.476 0 0 0 6.473-6.473V7.473z" fill="#2b2552" stroke="#b671e7" stroke-width="2"/>
    <circle cx="19.396" cy="18.459" r="5.724" fill="#fe5e56"/>
    <circle cx="38.489" cy="18.459" r="5.724" fill="#febc2e"/>
    <circle cx="57.581" cy="18.459" r="5.724" fill="#27c93f"/>
    <g fill="#fff" fill-rule="nonzero">
        <path d="M254.475 13.215h1.12v11.2h-1.12zM258.955 13.215v11.2h2.912c4.032 0 5.136-3.024 5.136-5.6 0-2.768-1.28-5.6-5.072-5.6h-2.976zm2.992 10.192h-1.872v-9.184h2.048c2.656 0 3.712 2.272 3.712 4.592 0 2.176-.88 4.592-3.888 4.592zM269.803 24.415h6.736v-1.072h-5.616v-4.192h3.552v-1.056h-3.552v-3.808h5.264v-1.072h-6.384v11.2z"/>
    </g>
    <g font-family="'OverpassMono-Regular','Overpass Mono'" font-size="16">
        <text x="831.004" y="469.585" fill="#e488d2" transform="translate(-812.561 -411.542)">
            import
        </text>
        <text x="899.996" y="469.585" fill="#fff" transform="translate(-812.561 -411.542)">
            {
        </text>
        <text x="919.708" y="469.585" fill="#8ee4fb" transform="translate(-812.561 -411.542)">
            Spec, Contract
        </text>
        <text x="1067.55" y="469.585" fill="#fff" transform="translate(-812.561 -411.542)">
            }
        </text>
        <text x="1087.26" y="469.585" fill="#e488d2" transform="translate(-812.561 -411.542)">
            from
        </text>
        <text x="1136.54" y="469.585" fill="#f48e6c" transform="translate(-812.561 -411.542)">
            &apos;
        </text>
        <text x="1146.4" y="469.585" fill="#f48e6c" transform="translate(-812.561 -411.542)">
            @specron/core
        </text>
        <text x="1274.52" y="469.585" fill="#f48e6c" transform="translate(-812.561 -411.542)">
            &apos;
        </text>
        <text x="1284.38" y="469.585" fill="#fff" transform="translate(-812.561 -411.542)">
            ;
        </text>
        <text x="831.004" y="517.585" fill="#4c9ef5" transform="translate(-812.561 -411.542)">
            interface
        </text>
        <text x="929.564" y="517.585" fill="#3bd4b5" transform="translate(-812.561 -411.542)">
            Data
        </text>
        <text x="978.844" y="517.585" fill="#fff" transform="translate(-812.561 -411.542)">
            {
        </text>
        <text x="850.716" y="541.585" fill="#8ee4fb" transform="translate(-812.561 -411.542)">
            id
        </text>
        <text x="870.428" y="541.585" fill="#fff" transform="translate(-812.561 -411.542)">
            ?:
        </text>
        <text x="899.996" y="541.585" fill="#3bd4b5" transform="translate(-812.561 -411.542)">
            number
        </text>
        <text x="959.132" y="541.585" fill="#fff" transform="translate(-812.561 -411.542)">
            ;
        </text>
        <text x="850.716" y="565.585" fill="#8ee4fb" transform="translate(-812.561 -411.542)">
            name
        </text>
        <text x="890.14" y="565.585" fill="#fff" transform="translate(-812.561 -411.542)">
            ?:
        </text>
        <text x="919.708" y="565.585" fill="#3bd4b5" transform="translate(-812.561 -411.542)">
            string
        </text>
        <text x="978.844" y="565.585" fill="#fff" transform="translate(-812.561 -411.542)">
            ;
        </text>
        <text x="850.716" y="589.585" fill="#8ee4fb" transform="translate(-812.561 -411.542)">
            User
        </text>
        <text x="890.14" y="589.585" fill="#fff" transform="translate(-812.561 -411.542)">
            ?:
        </text>
        <text x="919.708" y="589.585" fill="#3bd4b5" transform="translate(-812.561 -411.542)">
            Contract
        </text>
        <text x="998.556" y="589.585" fill="#fff" transform="translate(-812.561 -411.542)">
            ;
        </text>
        <text x="831.004" y="613.585" fill="#fff" transform="translate(-812.561 -411.542)">
            }
        </text>
        <text x="831.004" y="661.585" fill="#4c9ef5" transform="translate(-812.561 -411.542)">
            const
        </text>
        <text x="890.14" y="661.585" fill="#8ee4fb" transform="translate(-812.561 -411.542)">
            spec
        </text>
        <text x="939.42" y="661.585" fill="#fff" transform="translate(-812.561 -411.542)">
            =
        </text>
        <text x="959.132" y="661.585" fill="#4c9ef5" transform="translate(-812.561 -411.542)">
            new
        </text>
        <text x="998.556" y="661.585" fill="#3bd4b5" transform="translate(-812.561 -411.542)">
            Spec&lt;Data
        </text>
        <text x="1087.26" y="661.585" fill="#fff" transform="translate(-812.561 -411.542)">
            &gt;();
        </text>
        <text x="831.004" y="709.585" fill="#8ee4fb" transform="translate(-812.561 -411.542)">
            spec
        </text>
        <text x="870.428" y="709.585" fill="#fff" transform="translate(-812.561 -411.542)">
            .
        </text>
        <text x="880.284" y="709.585" fill="#ffe566" transform="translate(-812.561 -411.542)">
            before
        </text>
        <text x="939.42" y="709.585" fill="#fff" transform="translate(-812.561 -411.542)">
            (
        </text>
        <text x="949.276" y="709.585" fill="#4c9ef5" transform="translate(-812.561 -411.542)">
            async
        </text>
        <text x="1018.27" y="709.585" fill="#fff" transform="translate(-812.561 -411.542)">
            (
        </text>
        <text x="1028.12" y="709.585" fill="#8ee4fb" transform="translate(-812.561 -411.542)">
            ctx
        </text>
        <text x="1057.69" y="709.585" fill="#fff" transform="translate(-812.561 -411.542)">
            )
        </text>
        <text x="1077.4" y="709.585" fill="#4c9ef5" transform="translate(-812.561 -411.542)">
            =&gt;
        </text>
        <text x="1106.97" y="709.585" fill="#fff" transform="translate(-812.561 -411.542)">
            {
        </text>
        <text x="850.716" y="733.585" fill="#8ee4fb" transform="translate(-812.561 -411.542)">
            ctx
        </text>
        <text x="880.284" y="733.585" fill="#fff" transform="translate(-812.561 -411.542)">
            .
        </text>
        <text x="890.14" y="733.585" fill="#ffe566" transform="translate(-812.561 -411.542)">
            set
        </text>
        <text x="919.708" y="733.585" fill="#fff" transform="translate(-812.561 -411.542)">
            (
        </text>
        <text x="929.564" y="733.585" fill="#f48e6c" transform="translate(-812.561 -411.542)">
            &apos;id&apos;
        </text>
        <text x="968.988" y="733.585" fill="#fff" transform="translate(-812.561 -411.542)">
            , 100);
        </text>
        <text x="850.716" y="757.585" fill="#8ee4fb" transform="translate(-812.561 -411.542)">
            ctx
        </text>
        <text x="880.284" y="757.585" fill="#fff" transform="translate(-812.561 -411.542)">
            .
        </text>
        <text x="890.14" y="757.585" fill="#ffe566" transform="translate(-812.561 -411.542)">
            set
        </text>
        <text x="919.708" y="757.585" fill="#fff" transform="translate(-812.561 -411.542)">
            (
        </text>
        <text x="929.564" y="757.585" fill="#f48e6c" transform="translate(-812.561 -411.542)">
            &apos;web3&apos;
        </text>
        <text x="988.7" y="757.585" fill="#fff" transform="translate(-812.561 -411.542)">
            , context.web3);
        </text>
        <text x="850.716" y="781.585" fill="#8ee4fb" transform="translate(-812.561 -411.542)">
            ctx
        </text>
        <text x="880.284" y="781.585" fill="#fff" transform="translate(-812.561 -411.542)">
            .
        </text>
        <text x="890.14" y="781.585" fill="#ffe566" transform="translate(-812.561 -411.542)">
            set
        </text>
        <text x="919.708" y="781.585" fill="#fff" transform="translate(-812.561 -411.542)">
            (
        </text>
        <text x="929.564" y="781.585" fill="#f48e6c" transform="translate(-812.561 -411.542)">
            &apos;user&apos;
        </text>
        <text x="988.7" y="781.585" fill="#fff" transform="translate(-812.561 -411.542)">
            ,
        </text>
        <text x="1008.41" y="781.585" fill="#e488d2" transform="translate(-812.561 -411.542)">
            await
        </text>
        <text x="1067.55" y="781.585" fill="#8ee4fb" transform="translate(-812.561 -411.542)">
            context
        </text>
        <text x="1136.54" y="781.585" fill="#fff" transform="translate(-812.561 -411.542)">
            .
        </text>
        <text x="1146.4" y="781.585" fill="#ffe566" transform="translate(-812.561 -411.542)">
            require
        </text>
        <text x="1215.39" y="781.585" fill="#fff" transform="translate(-812.561 -411.542)">
            (
        </text>
        <text x="867.004" y="805.585" fill="#fff" transform="translate(-812.561 -411.542)">
            <tspan x="867.004" y="805.585">{</tspan>
        </text>
        <text x="886.716" y="805.585" fill="#8ee4fb" transform="translate(-812.561 -411.542)">
            src
        </text>
        <text x="916.284" y="805.585" fill="#fff" transform="translate(-812.561 -411.542)">
            :
        </text>
        <text x="935.996" y="805.585" fill="#f48e6c" transform="translate(-812.561 -411.542)">
            &apos;./src/contracts/User&apos;
        </text>
        <text x="1162.68" y="805.585" fill="#fff" transform="translate(-812.561 -411.542)">
            }
        </text>
        <text x="850.716" y="829.585" fill="#fff" transform="translate(-812.561 -411.542)">
            ));
        </text>
        <text x="831.004" y="853.585" fill="#fff" transform="translate(-812.561 -411.542)">
            });
        </text>
        <text x="831.004" y="901.585" fill="#e488d2" transform="translate(-812.561 -411.542)">
            export default
        </text>
        <text x="978.844" y="901.585" fill="#8ee4fb" transform="translate(-812.561 -411.542)">
            spec
        </text>
        <text x="1018.27" y="901.585" fill="#fff" transform="translate(-812.561 -411.542)">
            ;
        </text>
    </g>
</svg>
