<svg viewBox="0 0 512 422" xmlns="http://www.w3.org/2000/svg" fill-rule="evenodd" clip-rule="evenodd" stroke-linecap="round" stroke-linejoin="round" stroke-miterlimit="1.5">
    <path d="M510.993 6.437A5.44 5.44 0 0 0 505.556 1H6.43A5.44 5.44 0 0 0 .993 6.437v409.126A5.44 5.44 0 0 0 6.43 421h499.126a5.44 5.44 0 0 0 5.437-5.437V6.437z" fill="#2b2552" stroke="#b671e7" stroke-width="2"/>
    <circle cx="19.396" cy="18.459" r="5.724" fill="#fe5e56"/>
    <circle cx="38.489" cy="18.459" r="5.724" fill="#febc2e"/>
    <circle cx="57.581" cy="18.459" r="5.724" fill="#27c93f"/>
    <g fill="#fff" fill-rule="nonzero">
        <path d="M244.961 13.215h1.12v11.2h-1.12zM249.441 13.215v11.2h2.912c4.032 0 5.136-3.024 5.136-5.6 0-2.768-1.28-5.6-5.072-5.6h-2.976zm2.992 10.192h-1.872v-9.184h2.048c2.656 0 3.712 2.272 3.712 4.592 0 2.176-.88 4.592-3.888 4.592zM260.289 24.415h6.736v-1.072h-5.616v-4.192h3.552v-1.056h-3.552v-3.808h5.264v-1.072h-6.384v11.2z"/>
    </g>
    <g font-family="'Overpass Mono'" font-size="16">
        <text x="831.004" y="469.585" fill="#e488d2" transform="translate(-807.561 -411.542)">
            import
        </text>
        <text x="899.996" y="469.585" fill="#fff" transform="translate(-807.561 -411.542)">
            {
        </text>
        <text x="919.708" y="469.585" fill="#8ee4fb" transform="translate(-807.561 -411.542)">
            Spec
        </text>
        <text x="968.988" y="469.585" fill="#fff" transform="translate(-807.561 -411.542)">
            }
        </text>
        <text x="988.7" y="469.585" fill="#e488d2" transform="translate(-807.561 -411.542)">
            from
        </text>
        <text x="1037.98" y="469.585" fill="#f48e6c" transform="translate(-807.561 -411.542)">
            &apos;
        </text>
        <text x="1047.84" y="469.585" fill="#f48e6c" transform="translate(-807.561 -411.542)">
            @specron/core
        </text>
        <text x="1175.96" y="469.585" fill="#f48e6c" transform="translate(-807.561 -411.542)">
            &apos;
        </text>
        <text x="1185.82" y="469.585" fill="#fff" transform="translate(-807.561 -411.542)">
            ;
        </text>
        <text x="831.004" y="517.585" fill="#4c9ef5" transform="translate(-807.561 -411.542)">
            const
        </text>
        <text x="890.14" y="517.585" fill="#8ee4fb" transform="translate(-807.561 -411.542)">
            spec
        </text>
        <text x="939.42" y="517.585" fill="#fff" transform="translate(-807.561 -411.542)">
            =
        </text>
        <text x="959.132" y="517.585" fill="#4c9ef5" transform="translate(-807.561 -411.542)">
            new
        </text>
        <text x="998.556" y="517.585" fill="#3bd4b5" transform="translate(-807.561 -411.542)">
            Spec
        </text>
        <text x="1037.98" y="517.585" fill="#fff" transform="translate(-807.561 -411.542)">
            ();
        </text>
        <text x="831.004" y="565.585" fill="#8ee4fb" transform="translate(-807.561 -411.542)">
            spec
        </text>
        <text x="870.428" y="565.585" fill="#fff" transform="translate(-807.561 -411.542)">
            .
        </text>
        <text x="880.284" y="565.585" fill="#ffe566" transform="translate(-807.561 -411.542)">
            before
        </text>
        <text x="939.42" y="565.585" fill="#fff" transform="translate(-807.561 -411.542)">
            (
        </text>
        <text x="949.276" y="565.585" fill="#f48e6c" transform="translate(-807.561 -411.542)">
            &apos;returns boolean&apos;
        </text>
        <text x="1116.83" y="565.585" fill="#fff" transform="translate(-807.561 -411.542)">
            ,
        </text>
        <text x="1136.54" y="565.585" fill="#4c9ef5" transform="translate(-807.561 -411.542)">
            async
        </text>
        <text x="1195.68" y="565.585" fill="#fff" transform="translate(-807.561 -411.542)">
            (
        </text>
        <text x="1205.53" y="565.585" fill="#8ee4fb" transform="translate(-807.561 -411.542)">
            ctx
        </text>
        <text x="1235.1" y="565.585" fill="#fff" transform="translate(-807.561 -411.542)">
            )
        </text>
        <text x="1254.81" y="565.585" fill="#4c9ef5" transform="translate(-807.561 -411.542)">
            =&gt;
        </text>
        <text x="1284.38" y="565.585" fill="#fff" transform="translate(-807.561 -411.542)">
            {
        </text>
        <text x="850.716" y="589.585" fill="#4c9ef5" transform="translate(-807.561 -411.542)">
            const
        </text>
        <text x="909.852" y="589.585" fill="#8ee4fb" transform="translate(-807.561 -411.542)">
            main
        </text>
        <text x="959.132" y="589.585" fill="#fff" transform="translate(-807.561 -411.542)">
            =
        </text>
        <text x="978.844" y="589.585" fill="#e488d2" transform="translate(-807.561 -411.542)">
            await
        </text>
        <text x="1037.98" y="589.585" fill="#8ee4fb" transform="translate(-807.561 -411.542)">
            ctx
        </text>
        <text x="1067.55" y="589.585" fill="#fff" transform="translate(-807.561 -411.542)">
            .
        </text>
        <text x="1077.4" y="589.585" fill="#ffe566" transform="translate(-807.561 -411.542)">
            deploy
        </text>
        <text x="1136.54" y="589.585" fill="#fff" transform="translate(-807.561 -411.542)">
            ({
        </text>
        <text x="870.428" y="613.585" fill="#8ee4fb" transform="translate(-807.561 -411.542)">
            src:
        </text>
        <text x="919.708" y="613.585" fill="#f48e6c" transform="translate(-807.561 -411.542)">
            &apos;./build/main.json&apos;
        </text>
        <text x="1106.97" y="613.585" fill="#fff" transform="translate(-807.561 -411.542)">
            ,
        </text>
        <text x="870.428" y="637.585" fill="#8ee4fb" transform="translate(-807.561 -411.542)">
            contract:
        </text>
        <text x="968.988" y="637.585" fill="#f48e6c" transform="translate(-807.561 -411.542)">
            &apos;Main&apos;
        </text>
        <text x="1028.12" y="637.585" fill="#fff" transform="translate(-807.561 -411.542)">
            ,
        </text>
        <text x="850.716" y="661.585" fill="#fff" transform="translate(-807.561 -411.542)">
            });
        </text>
        <text x="850.716" y="709.585" fill="#8ee4fb" transform="translate(-807.561 -411.542)">
            ctx
        </text>
        <text x="880.284" y="709.585" fill="#fff" transform="translate(-807.561 -411.542)">
            .
        </text>
        <text x="890.14" y="709.585" fill="#ffe566" transform="translate(-807.561 -411.542)">
            true
        </text>
        <text x="929.564" y="709.585" fill="#fff" transform="translate(-807.561 -411.542)">
            (
        </text>
        <text x="939.42" y="709.585" fill="#e488d2" transform="translate(-807.561 -411.542)">
            await
        </text>
        <text x="998.556" y="709.585" fill="#8ee4fb" transform="translate(-807.561 -411.542)">
            main
        </text>
        <text x="1037.98" y="709.585" fill="#fff" transform="translate(-807.561 -411.542)">
            .
        </text>
        <text x="1047.84" y="709.585" fill="#8ee4fb" transform="translate(-807.561 -411.542)">
            methods
        </text>
        <text x="1116.83" y="709.585" fill="#fff" transform="translate(-807.561 -411.542)">
            .
        </text>
        <text x="1126.68" y="709.585" fill="#ffe566" transform="translate(-807.561 -411.542)">
            works
        </text>
        <text x="1175.96" y="709.585" fill="#fff" transform="translate(-807.561 -411.542)">
            ().
        </text>
        <text x="1205.53" y="709.585" fill="#ffe566" transform="translate(-807.561 -411.542)">
            call
        </text>
        <text x="1244.96" y="709.585" fill="#fff" transform="translate(-807.561 -411.542)">
            ());
        </text>
        <text x="831.004" y="733.585" fill="#fff" transform="translate(-807.561 -411.542)">
            });
        </text>
        <text x="831.004" y="781.585" fill="#e488d2" transform="translate(-807.561 -411.542)">
            export default
        </text>
        <text x="978.844" y="781.585" fill="#8ee4fb" transform="translate(-807.561 -411.542)">
            spec
        </text>
        <text x="1018.27" y="781.585" fill="#fff" transform="translate(-807.561 -411.542)">
            ;
        </text>
    </g>
</svg>
