<svg width="183" height="36" viewBox="0 0 183 36" xmlns="http://www.w3.org/2000/svg" fill-rule="evenodd" clip-rule="evenodd" stroke-linejoin="round" stroke-miterlimit="1.414">
    <g fill="#fff" fill-rule="nonzero">
        <path d="M48.537 28.266c4.597 0 7.587-2.28 7.587-5.831 0-3.326-2.579-4.298-7.587-5.494-3.476-.822-4.859-1.271-4.859-3.327 0-2.541 2.13-3.625 4.784-3.625 2.205 0 4.411.747 5.868 2.242l1.234-1.495c-1.495-1.57-4.037-2.654-7.027-2.654-4 0-7.289 1.981-7.289 5.906 0 3.065 2.019 3.85 6.541 4.971 3.925.935 5.868 1.533 5.868 3.701 0 2.317-2.055 3.663-5.158 3.663-2.579 0-4.821-.897-6.989-2.691l-1.159 1.719c2.093 1.906 5.158 2.915 8.186 2.915zM70.178 28.266c5.233 0 8.821-4.597 8.821-10.092 0-5.195-3.887-10.092-9.269-10.092-2.953 0-5.682 1.682-7.251 4.112V8.419h-2.28v27.435h2.541V23.856c1.533 2.504 4.149 4.41 7.438 4.41zm-.71-2.242c-2.915 0-5.569-2.131-6.728-4.897v-5.98c.411-2.617 3.85-4.822 6.392-4.822 4.074 0 7.251 3.663 7.251 7.849 0 3.962-2.729 7.85-6.915 7.85zM91.708 28.266c3.738 0 7.064-2.018 8.26-4.859l-2.205-.598c-.897 2.093-3.401 3.514-5.98 3.514-3.738 0-6.878-3.065-7.177-7.252h16.633c.037-.149.075-.635.075-1.009-.038-5.345-3.962-9.98-9.644-9.98-5.644 0-9.755 4.561-9.755 10.018 0 5.532 4.111 10.166 9.793 10.166zm-7.177-11.138c.262-4.112 3.327-7.065 7.139-7.065 3.813 0 6.878 2.916 7.214 7.065H84.531zM103.856 18.1c0 5.532 4.148 10.166 9.792 10.166 3.738 0 7.027-2.018 8.074-4.821l-2.467-.748c-.598 1.794-3.214 3.327-5.681 3.327-3.888 0-7.102-3.514-7.102-7.924 0-4.448 3.102-7.775 7.064-7.775 2.355 0 4.448 1.196 5.532 3.177l2.467-.785c-1.383-2.84-4.261-4.635-7.924-4.635-5.756 0-9.755 4.486-9.755 10.018zM138.093 7.896c-.187-.038-.373-.038-.897-.038-2.354 0-4.56 1.495-5.943 4.112V8.232h-6.503v19.661h7.101V16.231c1.084-1.383 3.514-1.944 6.242-1.944V7.896zM149.83 28.266c7.027 0 10.765-4.821 10.765-10.204 0-5.419-3.738-10.204-10.765-10.204-7.027 0-10.765 4.785-10.765 10.204 0 5.383 3.738 10.204 10.765 10.204zm-3.476-10.204c0-2.616 1.458-4.223 3.476-4.223s3.476 1.607 3.476 4.223c0 2.617-1.458 4.224-3.476 4.224s-3.476-1.607-3.476-4.224zM182.872 14.96c0-2.691-.636-7.102-5.981-7.102-3.401 0-6.018 1.159-7.4 3.289V8.232h-6.392v19.661h7.102V16.866c.635-1.644 2.205-2.803 3.401-2.803 1.159 0 2.168.822 2.168 2.766v11.064h7.102V14.96z"/>
    </g>
    <path d="M8.611 28.441L.993 14.627H16.23L8.611 28.441z" fill="#b671e7"/>
    <path d="M23.848 28.441L16.23 14.627h15.236l-7.618 13.814z" fill="#fe5e56"/>
    <path d="M8.611.812l7.619 13.815H.993L8.611.812z" fill="#c28bff"/>
    <path d="M16.23 14.627l7.618 13.814H8.611l7.619-13.814z" fill="#ffe566"/>
</svg>
